<svg width="312" height="72" viewBox="0 0 312 72" fill="none" xmlns="http://www.w3.org/2000/svg">
<g clip-path="url(#clip0_402_61)">
<path d="M23.29 69.5649C19.6909 69.5649 16.8939 69.0327 14.8939 67.9659C12.8938 66.899 11.5133 65.3848 10.7472 63.4182C9.98116 61.4516 9.59811 59.1379 9.59811 56.472V27.7875H0.00146484V15.9928H9.59811V1.40118L24.1897 0.00268555V15.9954H34.9844V27.79H24.1897V53.6776C24.1897 55.2766 24.5548 56.3435 25.29 56.8756C26.0227 57.4078 27.0896 57.6751 28.4881 57.6751H34.9844V69.57H23.29V69.5649Z" fill="white"/>
<path d="M163.419 69.5645V15.9925H177.613L178.111 25.6868H178.71C180.109 22.0877 182.291 19.4064 185.255 17.6403C188.22 15.8742 191.502 14.9924 195.102 14.9924C198.832 14.9924 202.248 15.8922 205.346 17.6917C208.444 19.4913 210.693 22.589 212.092 26.9876H212.891C214.223 22.9901 216.49 19.99 219.688 17.9925C222.886 15.9925 226.519 14.995 230.583 14.995C234.049 14.995 237.164 15.7277 239.928 17.193C242.691 18.6583 244.874 21.008 246.473 24.2395C248.072 27.4709 248.872 31.7846 248.872 37.1832V69.5671H234.18V40.3813C234.18 37.3838 233.863 34.885 233.231 32.8849C232.599 30.8849 231.565 29.4041 230.133 28.4375C228.701 27.4709 226.884 26.9876 224.686 26.9876C222.287 26.9876 220.254 27.5866 218.588 28.7871C216.922 29.9877 215.657 31.5533 214.791 33.4839C213.925 35.4146 213.49 37.5149 213.49 39.7797V69.5645H198.798V40.3787C198.798 37.3812 198.464 34.8824 197.798 32.8824C197.132 30.8823 196.099 29.4015 194.7 28.4349C193.302 27.4683 191.502 26.985 189.302 26.985C186.903 26.985 184.87 27.584 183.204 28.7846C181.538 29.9851 180.273 31.5507 179.407 33.4813C178.541 35.412 178.106 37.5123 178.106 39.7771V69.562H163.414L163.419 69.5645Z" fill="white"/>
<path d="M279.163 70.4643C275.965 70.4643 273.05 69.8987 270.417 68.765C267.785 67.6313 265.52 65.8986 263.62 63.567C261.72 61.2353 260.27 58.3355 259.273 54.8701C258.273 51.4047 257.774 47.3737 257.774 42.7772C257.774 36.5791 258.659 31.4324 260.422 27.3347C262.188 23.2369 264.687 20.1545 267.918 18.0902C271.15 16.0233 274.898 14.9924 279.163 14.9924C281.962 14.9924 284.477 15.4243 286.708 16.2907C288.939 17.157 290.873 18.3576 292.505 19.8897C294.138 21.4219 295.354 23.2214 296.153 25.2858H296.953L297.552 15.9899H311.644V69.562H296.953V60.1658H296.153C294.953 63.297 292.855 65.7958 289.855 67.6622C286.857 69.5285 283.292 70.4617 279.16 70.4617L279.163 70.4643ZM284.759 58.5694C287.492 58.5694 289.742 57.937 291.508 56.6696C293.274 55.4048 294.59 53.7544 295.456 51.7235C296.323 49.69 296.755 47.5408 296.755 45.276V40.1782C296.755 37.8465 296.323 35.6793 295.456 33.6819C294.59 31.6818 293.274 30.0494 291.508 28.7846C289.742 27.5197 287.492 26.8848 284.759 26.8848C282.361 26.8848 280.263 27.4503 278.464 28.584C276.664 29.7177 275.266 31.4504 274.266 33.7821C273.266 36.1138 272.767 39.1113 272.767 42.7772C272.767 46.3094 273.268 49.2581 274.266 51.6232C275.266 53.9883 276.664 55.739 278.464 56.8701C280.263 58.0038 282.361 58.5694 284.759 58.5694Z" fill="white"/>
<path fill-rule="evenodd" clip-rule="evenodd" d="M47.2004 32.4664L41.9509 32.5461C42.6065 34.2222 52.7738 46.1068 54.2597 47.3588L60.6892 40.0681C62.9309 37.5128 65.2446 35.2274 66.7948 32.8057L62.5247 32.4895C65.877 23.4661 81.8594 20.1319 89.3326 31.924C94.2813 39.7339 87.5948 50.6777 100.261 62.6908C119.943 81.3571 147.553 67.5907 151.028 47.7316L156.247 47.6981C154.393 45.1222 145.614 34.8161 143.028 32.6643C140.416 36.7647 134.555 43.6877 131.272 47.6544L136.226 47.9938C131.686 58.9735 117.156 61.3155 109.174 51.8602C102.788 44.297 109.539 32.0422 98.7956 21.191C90.7131 13.0263 80.8928 8.60458 68.3141 11.8489C58.1467 14.4711 49.7866 22.3761 47.1979 32.469L47.2004 32.4664Z" fill="#F5B430"/>
<path fill-rule="evenodd" clip-rule="evenodd" d="M97.3844 62.5105L95.2584 59.3433C94.3252 58.0219 93.9473 57.4461 93.2815 56.2095C91.991 53.8213 91.4177 50.8109 90.0912 49.0371C81.7542 63.5465 62.7049 59.4667 60.1984 43.528L54.2625 50.0166L50.121 45.5023C48.432 43.5151 48.1595 42.9393 46.0798 40.8904C44.1312 68.4978 80.7028 81.0662 97.3844 62.5105Z" fill="#F5B430"/>
<path fill-rule="evenodd" clip-rule="evenodd" d="M100.302 20.1829C106.084 27.7076 104.636 28.2706 107.287 32.7283C107.349 32.8311 107.467 33.0239 107.577 33.1601C112.809 20.1007 133.516 21.3989 136.748 37.6024C136.894 37.4996 137.103 37.1448 137.169 37.2682L143.673 30.0881C146.208 33.0085 148.897 35.6589 151.103 38.7593C153.322 33.8054 147.121 23.8 142.445 19.224C141.28 18.0852 142.108 18.7202 140.799 17.661C133.732 11.9308 123.598 9.51428 114.356 11.6712C108.503 13.0388 102.752 16.1237 100.3 20.1804L100.302 20.1829Z" fill="#F5B430"/>
</g>
<defs>
<clipPath id="clip0_402_61">
<rect width="311.646" height="71.5211" fill="white"/>
</clipPath>
</defs>
</svg>
